<?xml version="1.0" encoding="UTF-8"?>
<svg id="Layer_2" data-name="Layer 2" xmlns="http://www.w3.org/2000/svg" viewBox="0 0 1659.74 790.27">
  <defs>
    <style>
      .cls-1 {
        fill: #a67a44;
        fill-rule: evenodd;
      }
    </style>
  </defs>
  <g id="Layer_1-2" data-name="Layer 1">
    <g>
      <path class="cls-1" d="M495.34,0c-6.49,.74-11.48,1.83-15.82,7.04,6.01-1.46,12.66-2.14,15.82-7.04Z"/>
      <path class="cls-1" d="M507.83,8.05c-.99-1.16-2.95-1.14-4.99-1.01-1.17,3.21,4.98,2.54,4.99,1.01Z"/>
      <path class="cls-1" d="M485.35,11.06c2.69,3.04,11.26-.04,14.15-3.01-5.41,2.31-11.51-2.42-14.15,3.01Z"/>
      <path class="cls-1" d="M395.47,9.05h-7.5c-.71,4.76,7.99,3.91,7.5,0Z"/>
      <path class="cls-1" d="M730.05,17.09c.59-3.6,.08-2.64,4.17-2.01-.92-5.12-6.32,.72-8.32-2.02,.25,1.98-1.13,2-1.67,3.01,1.08,1.39,3.62,1,5.83,1.01Z"/>
      <path class="cls-1" d="M478.69,18.09c.29-5.28-7.18-2.94-7.49,0,2.23,2.58,4.39-.61,7.49,0Z"/>
      <path class="cls-1" d="M717.57,23.12c3.73,0,3.72-1.7,6.65,0-1.07-3.06-3.91-4-.83-7.04-2.36,.18-5.71-.86-5.83,2.01,2.44,.85-.49,3.24,0,5.03Z"/>
      <path class="cls-1" d="M1256.07,20.11c-1.09-4.05-5.4-5.5-7.5-2.02,1.86,1.46,4.03,2.53,7.5,2.02Z"/>
      <path class="cls-1" d="M499.5,22.12c-8.37-1.4-12.54,2.28-19.98,2,3.68,4.82,15.62,3.01,19.98-2Z"/>
      <path class="cls-1" d="M1293.52,22.12c-2.47,1.73-4.22-.33-5.82,1.01-.2,1.89,.93,2.22,.82,4.02,3.73,.81,4.62-1.79,5-5.02Z"/>
      <path class="cls-1" d="M343.87,28.14c-3.13-7.92-13.02-3.31-19.98-5.02,4.47,3.77,14.66,5.58,19.98,5.02Z"/>
      <path class="cls-1" d="M365.5,31.16c.62-8.12-8.03-5.04-13.31-6.04,2.44,4.42,7.93,5.17,13.31,6.04Z"/>
      <path class="cls-1" d="M296.42,27.14c-2.29-1.5-4.23,.56-7.48-1,.49,4.02,5.97,3.29,7.48,1Z"/>
      <path class="cls-1" d="M266.46,32.16c-11.4,.35-26.95,2.81-29.13,8.05,5.76-.71,13.49-.11,19.14-5.03,2.64,4.3,8.42,1.93,9.98-3.02Z"/>
      <path class="cls-1" d="M705.91,34.18c-4.92-.86-11.73,.73-7.49,5.02,2.64-1.5,6.37-1.68,7.49-5.02Z"/>
      <path class="cls-1" d="M340.53,38.2c-1.94-.44-2.23-4.44-4.16-2.01-.58,2.5,3.56,4.25,4.16,2.01Z"/>
      <path class="cls-1" d="M261.46,44.23c6.84,2.3,18.1-4.62,18.31,4.02,10.84-3.66,27.75,0,35.79-7.04-9.03,.58-11.01-2.89-19.15-5.03-.75,3.33,4.63,4.36,2.5,6.03-16.84,3.42-27.95-14.03-37.46,2.01Z"/>
      <path class="cls-1" d="M392.14,36.19c-2.74,.04-4.14,1.7-7.49,1.01,.81,4.56,7.03,2.9,7.49-1.01Z"/>
      <path class="cls-1" d="M1480.8,42.22c-4.7-2.75-11.4-4.04-14.99,1.01,1.92,3.39,14.57,5.91,14.99-1.01Z"/>
      <path class="cls-1" d="M1499.93,42.22c-3.15,.44-5.92-2.61-8.32,0v3.01c3.09,.7,6.9,.77,8.32-3.01Z"/>
      <path class="cls-1" d="M405.45,46.24c2.3,2.17,4.38,.52,4.16-1.01,.05,.62,.12,1.19,.83,1.01,.18-5.08-3.72-1.54-4.99,0Z"/>
      <path class="cls-1" d="M1082.95,70.36c-.51-3.4-3.7-3.58-5-6.03v-6.03c5.19-3.12,10.9-5.59,14.98-10.04-5.68,1.17-8.14-1.57-11.65-3.02-4.87,8.87-14.97,11.41-19.97,20.11,7.5,1.33,12.27,5.96,21.64,5.02Z"/>
      <path class="cls-1" d="M340.53,58.3c-2.27,1.76-5.94-1.74-9.99-1,9.04,5.06,17.7,11.57,29.13,6.03,1.26-7.25-8.1-5.35-4.16-10.05-5.07-1.66-13.76-2.09-18.31,1,.52,2.06,4.2,.29,3.33,4.02Z"/>
      <path class="cls-1" d="M1491.62,55.29c-.18-3.49-4.6-1.84-6.67-3.02,.25,3.38,3.78,2.82,6.67,3.02Z"/>
      <path class="cls-1" d="M556.93,75.39c2.15,1.08,4.08,2.44,7.49,2-.44-4.22,2.68-4.13,3.33-7.03-5.84-1.02-8.6,1.68-10.82,5.03Z"/>
      <path class="cls-1" d="M1051.32,78.41c-2.26-1.11-6.38-1.88-5.82,3.02,2.48-.36,5.07-.58,5.82-3.02Z"/>
      <path class="cls-1" d="M25.8,94.5c-4.23-9.97-17.59-8.91-25.8-14.07v21.11c.06-9.23,6.89-5.26,9.99-2.01,10.4-3.95,13.81,7.7,24.97,6.03,.29-6.34,6.3-5.8,9.99-8.04-3.32-6.51-14.24-6.66-19.15-3.02Z"/>
      <path class="cls-1" d="M407.12,110.58c2.87-.79,3.66,.93,4.16,3.01,6.64-5.9,13.19-6.6,21.64-2.01-7.03-5.32-26.39-23.24-25.8-1Z"/>
      <path class="cls-1" d="M620.18,110.58c-4.19-.72-4.14,3.7-7.49,4.02,.41,7.53-3.54,9.79-6.65,13.07-1.72-2.44-8.41-7.4-9.99-1.01,5.02,.98,7.56,4.95,13.32,5.03,4.09-6.45,5.86-15.71,10.81-21.1Z"/>
      <path class="cls-1" d="M420.43,117.61c1.19,1.15,5.7,.2,5.83-3.01-2.48,.35-5.07,.58-5.83,3.01Z"/>
      <path class="cls-1" d="M793.31,160.84h5.82c.56,3.02,3.21,3.51,2.5,8.04-1.21,1.56-4.26,.88-6.65,1,1.58,6.32,2.22,10.2-.84,16.08,10.17-5.98,30.01,5.18,29.13-13.07-1.07-1.39-3.62-1-5.83-1.01-2.9-8.89-10.91-11.62-14.98-19.1-.23-3.96,3.55-3.08,3.33-7.04-2.25-2.43-4.62,1.11-8.32,0-1.09-11.19-9.78-2.1-9.99,5.03,1.96,5.39,6.21,1.84,5.83,10.06Z"/>
      <path class="cls-1" d="M121.52,145.76c.44,5.76,9.13,1.13,8.32-4.02-3.36,.64-4.2,4.31-8.32,4.02Z"/>
      <path class="cls-1" d="M869.88,161.84c3.3-.03,3.41-3.91,4.16-7.04-1.85,.78-4.51,.58-4.99,3.01,2.33,.99-1.21,2.68,.83,4.02Z"/>
      <path class="cls-1" d="M786.64,172.9c-.83-6.18-.9-8.47,2.5-11.06-7.7-6.6-13.58,2.74-19.98,4.02,3.81,5.76,.9,7.03-.83,13.07,7.88,.14,13.54-2.41,18.31-6.03Z"/>
      <path class="cls-1" d="M187.39,165.86c-.39,3.16,1.04,4.11,2.5,5.03,1.62-1.94,.87-6.16-2.5-5.03Z"/>
      <path class="cls-1" d="M549.44,180.94c-5,5.35-9.24,11.64-11.65,20.1,11.2-2.36,17.28,5.93,23.3-1.01,.19-3.23-1.47-4.25-.83-8.03-5.93,.78-9.63-1.1-13.32-3.01-.74-3.97,4.84-5.46,2.5-8.04Z"/>
      <path class="cls-1" d="M564.42,206.07v-3.02c-1.44-.08-2.59,.22-3.33,1-.84,3.03,1.86,1.78,3.33,2.02Z"/>
      <path class="cls-1" d="M1492.44,205.06c-1.65,0-1.06-2.74-3.33-2,.27,2.33-.13,3.86-.83,5.02,1.94-.33,3.58-1.03,4.16-3.02Z"/>
      <path class="cls-1" d="M1481.62,230.2c9.64,2.51,16.32,1.06,22.48-5.03-6.96-1.33-11.91-5.04-16.65-9.05,1.04,8.3-2.63,10.91-5.83,14.08Z"/>
      <path class="cls-1" d="M860.73,230.2h-3.34c-1.71,3.74,.07,6.58,1.66,9.04-1.29,1.46-3.88,1.34-4.99,3.02,2.9,.52,1.22,6.57,1.67,10.05,2.35-.17,3.46-1.84,5.82-2.01,1.76-9.96-2.85-10.45-.83-20.1Z"/>
      <path class="cls-1" d="M827.43,247.28c-.85,3.38,2.58,1.57,4.16,2.01,.12-4.04-2.14-2.65-4.16-2.01Z"/>
      <path class="cls-1" d="M927.31,271.41c3.21,3.68,8.84,4.33,13.32,2.01-4.81-.23-7.45-3.07-13.32-2.01Z"/>
      <path class="cls-1" d="M978.08,271.41c-3.04,1.36-8.35-.02-9.16,4.02,3.23,2.85,8.95,.12,9.16-4.02Z"/>
      <path class="cls-1" d="M1430.85,283.47c1.26,3.85,1.39,9.05,3.34,12.06,4.33-.79,4.18-7,5.81-11.06-2.47-3.36-5.75-3.19-9.15-1.01Z"/>
      <path class="cls-1" d="M459.55,339.77c-2.93,1.87-2.74-.77-5-2.02-1.06,2.07-1.33,5.1-4.17,5.03-3.02-3.38-3.26-10.12-4.99-15.08h-4.16c-1.42,10.75,4.27,18.05,13.32,19.11-.29-4.72,3.94-3.96,5-7.03Z"/>
      <path class="cls-1" d="M1387.57,345.8c1.83-3.38,6.49-12.16,3.33-15.08-3.54,1.82-9.2,11.19-3.33,15.08Z"/>
      <path class="cls-1" d="M417.1,347.81c6.53,2.61,11.31,3.97,17.48,0,7.5,3.73,15.1,17.87,26.64,10.04-11.48-6.19-29.34-23.59-44.12-10.04Z"/>
      <path class="cls-1" d="M491.18,367.91c-5.18-3.99-12.88-7.83-19.14-5.03-.14,3.19,2.21,3.36,1.66,7.04,4.71,.81,11.64-1.19,17.48-2.01Z"/>
      <path class="cls-1" d="M1387.57,368.92c-1.43,10.59-6.42,22.24,3.33,26.13-2.6-9.87,4.82-13.47,2.49-25.13-2.89,.81-3.19-1.49-5.81-1Z"/>
      <path class="cls-1" d="M1407.54,403.08c-.95,3.13,.12,4.69-1.66,8.05,3.48,.92,4.79-7.09,1.66-8.05Z"/>
      <path class="cls-1" d="M1394.23,409.13c2.43,4.39,2.73,8.44,4.16,12.06,1.32-2.11,.58-6.68,1.67-9.05-2.69-.09-1.79-4.56-5.82-3.01Z"/>
      <path class="cls-1" d="M1399.22,426.21c0,2-2.27,1.28-1.66,4.02,3.08-.7,5.71-1.86,6.65,2.01,.34,2.42-1.51,2.19-.83,5.03,2,1.28,3.08,3.67,6.67,3.01,.02-2.37-1.44-2.96-.84-6.03,1.07-1.4,3.94-.61,5-2.01-.95-3.56-.23-9.11-3.34-10.04-3.35,2.74-7.31,8.23-11.65,4.02Z"/>
      <path class="cls-1" d="M1377.59,445.3c-2.05-4.23-4.82-7.58-8.33-10.05-7.01,9.29-12.92,19.91-24.98,23.12-1.55,1.81-.98,6.17-3.32,7.04-17.24-3.63-4.15,19.48-1.66,27.13,9.96-1.88,16.03,2.35,25.79,3.02-.36-11.49,7.37-13.22,6.66-25.12,.98-1.16,2.94-1.15,4.99-1.01-3.17-6.7-7.12-20,.84-24.13Z"/>
      <path class="cls-1" d="M1422.53,471.44c1.73-2.07,0-5.09-2.5-5.03-.16,2.89-.11,5.49,2.5,5.03Z"/>
      <path class="cls-1" d="M1388.41,468.43c-.55,4,3.16,2.87,5.83,3.01,.07-3.43-3.08-2.97-5.83-3.01Z"/>
      <path class="cls-1" d="M1509.09,583.03c-3.99-6.16-1.91-15.29-5.83-23.13-1.79-3.57-6.01-4.72-7.49-8.04-4.49-10.04-3.71-25.79,3.32-33.17,14.01-1.83,11.07,16.79,25.81,14.07-3.16-8-16.65-11.67-11.66-23.12-1.92-1.36-4.72-1.67-6.65-3.02-6.39-15.06-25.65-14.58-38.29-22.1-5.4,1.86-7.46,7.74-12.48,10.04-4.22-1.93-6.25-6.53-5.83-14.07-4.94-2.52-10.49-4.15-13.32,2.01,3.74,.84,5.43,4.16,8.33,6.02-1.92,2.23,.29,3.93,0,7.04,7.93,.96,26.04,3.93,27.46,19.1-1.39,3.68-6.92,2.36-8.32,6.03,4.15,3.82,8.45-.2,14.15,0,13.8,6.4,8.52,35.64,3.33,49.26-10.18-.12-17.4-3.78-21.64-11.07-.62-3.76,3.19-2.18,3.34-5.01-5.43-1.79,.85-6.78-.83-13.08-12.5,5.44-17.12-5.15-29.98-2.01,3.27,8.86-1.24,18.83-9.98,19.09-3.46-.52-3.57-5.06-8.32-4.01-6.63,2.38-6.48,12.96-15.82,12.05-.79,5.42-5.53,6.03-4.16,14.08-4.7,9.42-15.82,11.04-26.64,13.07-3.59,3.37-7.15,6.77-12.49,8.04-2.23,16.04-2.97,21.9,1.66,33.16,3.56,8.64,8.09,17.92,7.5,30.16-.42,2.66-4.59,3.39-2.5,6.04,12.85,10.36,20.83-7.92,39.12-3.02,.97-1.51,1.03-4.12,2.49-5.03,13.04-5.41,32.15-11.98,46.61-4.03,1.87,5.45,6.59,7.46,7.49,14.08,4.03-1.16,4.53-6.59,10-6.03,.4,3.18-1.52,3.55-.84,7.04,2.62,.48,1.87-3.09,4.99-2.02,1.4,12.93,14.11,27.85,29.13,21.1,3.41,.25,4.69,3.05,8.32,3.02,4.23-2.59,6.65-7.38,14.14-6.04,4.52-24,25.18-37.82,16.65-68.34-10.76-12.12-16.6-30.21-30.79-38.19Z"/>
      <path class="cls-1" d="M1382.57,479.49c-1.95,2.99-1.48,8.92-3.32,12.06,4.45,1.15,2.92,10.81,3.32,14.06,6.21,.13-1.2-16.2,5-16.08,2.82,2.61,2.57,8.96,5.81,11.06,5.24-2.96-1.96-9.85-2.49-15.08,.15-3.17,4.48-1.28,4.15-5.02-3.81-.58-4.61,2.46-7.48,3.02-2.27-.63-2.07-4.21-5-4.03Z"/>
      <path class="cls-1" d="M1327.65,489.54c-2.47-1.19-3.57,4.24-1.66,5.02,.35-1.92,2.36-1.82,1.66-5.02Z"/>
      <path class="cls-1" d="M1534.89,499.59c-.75,2.12-1.31,4.46-2.5,6.03,2.41-.18,5.53-5.3,2.5-6.03Z"/>
      <path class="cls-1" d="M1529.9,506.62h-8.32c.18,3.81,8.36,4.53,8.32,0Z"/>
      <path class="cls-1" d="M1454.16,507.63h-2.5v6.04c2.98,.58,2.54-2.97,2.5-6.04Z"/>
      <path class="cls-1" d="M1350.95,519.7c-.7-1.18-1.1-2.7-.83-5.03-12.13,.47-22.21-3.82-33.29-5.02v3.01c9.66,6.17,29.26,10.78,40.77,8.04-1.2-1.55-4.25-.88-6.65-.99Z"/>
      <path class="cls-1" d="M1408.38,526.74c1.38-1.35,5.28,.36,4.99-3.02-2.08,.51-5.02-.04-4.99,3.02Z"/>
      <path class="cls-1" d="M1406.71,527.74c-2.71-.26-4.01,1.19-4.16,4.01,2.02-.57,4.28-.85,4.16-4.01Z"/>
      <path class="cls-1" d="M1047.16,545.83c-2.8,12.36-9.36,20.21-20.81,22.11-5.4,4.66,1.13,13.62,0,22.12-.57,4.27-4.67,7.38-4.99,11.06-.29,3.25,1.82,15.07,4.16,17.08,3.24,2.79,6.82-.72,11.65,0,5.01-17.26,12.68-36.02,13.32-55.28,1.69-1.76,1.63,.75,3.32-1.01-1.96-5.67-.59-15.37-6.65-16.08Z"/>
      <path class="cls-1" d="M1642.26,682.53c-.26-3.09-3.02-8.35-5-6.03,2.24,1.32,1.66,6.04,5,6.03Z"/>
      <path class="cls-1" d="M1647.26,685.55h-4.17c2.95,6.55-1.72,9.95-2.49,15.08,5.27-1.12,5.91,5.64,4.16,10.05,5.9-.93,7.84-6.62,9.16-13.07,4.17,.68,5.2-2.42,5.83-6.04-3.1,1.07-12.08,1.68-12.48-6.03Z"/>
      <path class="cls-1" d="M1502.43,708.68c.32,14.67,14.67,18.67,14.99,1-3.82-1.18-10.55,2.96-14.99-1Z"/>
      <path class="cls-1" d="M1605.63,736.82c14.7,12.22,16.55-9.43,28.31-12.06,.6-6.62,4.9-8.81,6.65-14.07-2.91-.65-4.79-.39-8.33-2-3.75,15.57-20.04,15.99-26.63,28.13Z"/>
      <path class="cls-1" d="M883.2,32.16c5.6-3.01,6.3,3.93,12.49,3.02,7.51-8.47,16.19-17.76,21.64-4.02,1.24-4.01,7.2,2.92,6.65-2.01-1.09-2.69-5.27-1.67-7.49-3.01,.41-3.84-2.89-3.21-1.66-8.05-8.13-.42-15.54,0-19.98,4.03-6.49-2.98-17.61-3.84-25.8-2.01-.19,1.9,.93,2.22,.83,4.01,4.31-.07,12.3,1.11,13.31,8.04Z"/>
      <path class="cls-1" d="M553.6,65.34c4.27,.8,6.32-1.08,9.15-2.01,1.75,5.28,5.97,1.95,9.16,6.03,1.02,3.25-2.7,.77-1.67,4.02,4.97-1.31,4.13,4.39,4.16,9.05-15.08-4.67-14.57,16.71-4.16,21.1,3.76,9.87,12.26,19.37,19.98,21.11-2.11-4.48-6.95-5.68-9.99-9.04,1.76-4.43-1.65-5.18,.83-10.06-1.59-2.77-3.41-5.27-4.99-8.04,1.07-1.4,3.93-.62,4.99-2.01-3-3.91-.34-9.41-4.99-12.07,5.67-6.15-.77-13.26-4.16-19.1-12.89-.52-18.83-14.79-27.47-17.08,4.79,3.93,7.38,10.51,9.16,18.09Z"/>
      <path class="cls-1" d="M151.52,130.4s.05-.02,.08-.02l-.07-.06s0,.06-.01,.08Z"/>
      <path class="cls-1" d="M626.85,490.55c-8.25,1.24-12.96-1.79-19.98-2.02-4.59-12.21-23.67-6.92-24.14-24.11-4.56-2.87-10.22-4.42-9.15-14.07-7.68-3.74-14.24-15.16-24.97-9.04-12.37-6.86-18.03-21.79-31.62-27.16-9.48,5.1-13.23-.3-24.14,1.02-.15-6.52-6.74-5.27-9.16-9.05,.38,3.14-.72,4.49-3.33,4.01-3.28,.61,.21-6.95-3.33-6.02-3.04,2.04-10.12,7.87-16.64,9.04-2.11,6.17-4.83,11.59-9.99,14.08-5.12-8.13-12.88-5.11-20.81-2.01-11.01-3.65-13.98-25.27-5.83-36.19-6.86-7.34-19.57-1.77-28.29-6.03,5.09-7.59,3.98-22.67,9.15-30.15-8.36-2.27-20.5-.72-19.14,12.06-20.18,18.59-41.78-13-29.96-38.2-1-2.82-.91-6.93-.83-11.06,9.23-12.97,23.95-11.75,38.28-8.04,1.64-.7-.21-5.62,1.66-6.03,9.8-5.55,15.89,3.27,24.97,1,5.3,6.67,5.5,19.5,10.82,26.14-.56,2-2.87,4.29,0,5.02,14.27-6.56-2.2-24.01-.84-36.19,1.74-15.56,20.39-14.59,27.47-28.15-1.41-.96-2.14-2.77-1.67-6.03,5.83-14.2,10.88-27.08,25.8-28.14-4.43-14,17.33-18.4,26.64-19.1-.6,3.64-4.83,2.87-4.99,7.04,4.32,3.4,6.74-2.91,9.99-4.02,6.35-1.83,16.58-3.94,16.65-10.05-3.22-2.13-3.33,4.16-7.49,5.01-6.09,1.28-14.71-2.55-14.15-11.04-1.32-2.1-6.61,.61-5.83-4.02,2.59-1.07,7.39,1.1,8.32-4.03-9.54-5.04-17.37,5.72-24.13,4.03,1.22-4.89,4.68-7.09,9.98-7.04,1.25-1.52,1.49-4.24,3.34-5.03,7.36-3.29,18.12,.79,26.63,0,7.05-.66,9.78-5.85,14.98-7.03,1.69-.39,3.91,.53,5,0,9.59-4.77,3.57-8.53-1.67-13.07-1.37-1.2-2.63-4.58-3.33-5.03-6.06-3.87-13.51-2.25-15.82-9.05-2.1-10.87-11.38-13.06-14.98-22.11-4.71,10.56-25.52,17.7-24.97-4.03-2.74-.04-4.14-1.7-7.49-1.01-5.55-10.14-19.25-4.24-29.96-8.04-1.5,3.91,1.04,10.5,1.66,15.08-.79,3.07-4.05,3.15-4.16,7.03,14.43,1.52,7.37,24.64-4.99,22.12,1.16,4.62,2.5,9.05,3.33,14.07-2.49,2.01-4.16,5.03-7.49,6.03-1.67-3.02-6.12-2.68-6.67-7.04-.25-2.65,3.23-.8,2.5-4.02-5.63,.76-6.58-4.13-5.83-11.06-18.68,2.46-28.71-13.99-46.61-12.06-2.69-1.45-3.69-4.92-4.99-8.04h-6.66c-5.1-13.62,6.4-23.44,16.65-25.13,.82-6.38,5.71-7.84,12.49-7.04,4.11-3.74,7.78-8.02,9.99-14.07,5.35-1.1,7.17,2.05,10.82,3.01,3.08-2.99,7.31-4.57,11.65-6.03-2.5-4.3-.84-5.29,.84-9.05-.13-3.86-4.41-2.71-4.16-7.04,8.85-1.15,10.88,1.06,16.64,2.02-1.55,4.7-11.54,3.86-9.16,10.04,3.41-1.06,7.5-1.47,9.99,1.01v9.05c4.02,1.22,4.49,3.48,3.33,9.05,21.87-4.35,31.67,12,51.6,13.07-.2-5.44-7.52-2.31-7.49-8.04,5.27-2.11,10.34,4.09,16.65,4.02-.5-2.61,.33-3.62,2.49-3.02-2.2-9.06-15.56-4.66-14.97-17.08,9.04-1.54,10.81,5.7,17.48,7.03,2.4-2.11,5.72-3.15,8.32-5.03-4.46-9.68-18.08-8.31-25.8-14.07-.59-3.74,1.42-4.32,.82-8.05-13.31-5.89-26.05-9.38-41.61-12.06,.92-5.75-6.45-6.72-10.82-9.05-1.46,.91-1.38,3.7-3.33,4.02-8.68-3.89-17.96-5.54-29.13,0,.46,3.68,1,5.39-1.66,7.04-3.3-.03-3.42-3.91-4.16-7.04,.56-3.76,2.76,.75,3.32-3.01-8.47-3.15-15.61,2.99-19.14,9.05,3.05,8.38,11.85,9.82,21.64,10.05,2.27,9.71-2.83,15.79-10.82,16.08-3.37-2.77-.8-4.93-1.67-8.04-6.97-1.89-12.33-3.3-20.8-5.02-.41-3.17,2.87-2.67,.83-5.03-4.36-1.11-4.93-6.78-9.15-8.04,.9-10.01,12.41-1.55,14.15-11.06-10.38-1.42-12.48,3.33-21.64,2.01-2.31,3.53,3.22,4.3,2.5,9.05-1.28,2.14-3.7,2.9-5.82,4.02,.11,4.55,2.35,6.54,3.32,10.04-5.17,1.23-6.43-2.27-10.82-2-2.4,2.84-2.68,4.28-.83,8.04-14.98,8.84-31.78-3.29-46.61-1-2.54,2.07,3.64,4.86,.83,7.03-10.39-4.84-21.68,.94-32.46-3.02-.41-3.15,2.87-2.65,.83-5.02-14.81,1.9-29.25-8.12-45.77-3.02-1.72-.27-.2-4.44-2.5-4.02-1.06,2.41-2.71,4.09-5.82,4.02-6.23-5.98-9.4-6.94-17.48-5.03-9.05,2.15-23.72,2.33-32.46,4.01-21.25,4.11-11.16-8.41-35.91-5.02-1.29-1.46-3.88-1.34-4.99-3.01-14.47-1.96-28.81,1.74-44.11,4.02-4,5.23-8.9,9.36-18.32,8.04,5.07,6.61,15.07,7.26,20.81,13.07-3.12,8.3-9.64,.14-14.15,0-5.01-.17-8.4,3.81-13.31,4.02,1.71,3.28,6.51,2.86,6.65,8.04,8.24-2.68,14.9-1.17,23.3-3.02,.7,2.17,2.16,3.43,1.67,7.04-8.02,3.06-14.77,.7-22.47-1.01-1.67,8.39-7.18,12.1-8.32,21.11,7.88,1.97,21.77-1.21,27.46,8.04,6.43-.56,14.6-2.07,19.15,2.01-1.15,12.01-13.7,10.25-19.98,16.08,15.99-1.13,23.98-11.92,36.63-17.09v-6.03c4.92,.25,5.03-5.31,10.81-4.02,.01,2.67-.46,5.92,1.67,6.03,3.23-3.23,8.54-6,13.64-5.46,.38-.16,.85-.35,1.46-.57,.25,.23,.51,.43,.76,.65,.2-1.63-.89-4.83,.78-4.67,6.82,1.51,2.79,3.66-.71,4.73,8.52,7.22,18.87,8.09,24.97,19.41,.8-3.39-2.55-6.88,0-9.05,2.25,4.65,4.39,4.17,7.49,4.02-1.03,6.34-1.25,14.85,4.99,15.07,.32-3.06-2.19-5.12,.83-6.03,.63,6.95,10.51,2.73,8.32,13.07,7.36,3.85,11.75,11.27,16.65,18.09-1.25,2.79-3.4-1.75-4.16,1,4.68,4.41,11.29,6.47,15.81,11.06,2.83,8.19,3.79,24.01,.83,33.18-.33,20.96,12.23,30.23,18.31,46.23,7.02,.24,11.19,3.91,14.98,8.04,3.29,12.45,10.49,20.18,15.82,30.16-1.11,1.01-3.1,.95-3.33,3.02,4.38,4.35,14.51,5.11,11.65,15.07,5.03,.72,9.21,11.75,12.49,8.05-10.08-10.29-13.26-28.89-24.14-38.2,.29-2.76-2.39-7.06,0-9.05,2.2-1.4,7,1.19,8.32,4.03-1.3,3.63,3.18,8.72,2.5,12.07,6.51,4.2,12.91,8.54,14.98,18.08,9.37,7.04,20.69,15.05,18.31,33.18,4.02,5.92,10,6.4,16.64,10.05,7.91,4.34,17.16,13.8,25.8,13.07,3.01-.25,4.75-3.26,7.49-3.02,6.63,.62,11.11,8.74,14.99,13.08,12.83,1.59,22.8,6.63,28.29,17.09v6.02c9.92,3.11,14.99,12.07,24.97,15.09-1.66-5.55,1.06-9.49,6.66-9.04,7.8,7.13,8.53,19.63,8.32,32.16-6.75,8.93-15.25,15.76-16.65,31.16,.35,3.6,4.84,2.2,5,6.03-6.04,4.12-9.51,8.58-5,17.09,2.24,4.23,6.85,8.72,9.99,16.1,4.76,11.14,10.57,22.65,12.48,32.15,5.84,6.02,12.34,11.24,20.81,14.07,.65,4.24,4.5,6.55,5.83,7.03,1.81,14.16,.52,26.5,0,40.22-.42,10.97-5.41,21.86-5.83,32.16-.61,14.83-1.22,27.42-9.15,39.21,3.8,7.74-.8,13.58-.83,22.12,2.35,.18,5.71-.87,5.83,2.01-2.01,5.61-1.65,14.09-4.99,18.09-1.88-.41,.12-5.5-2.49-5.03-2.57,2.6-.89,10.33-4.16,12.07,2.05,.87,3.6,2.35,3.33,6.02-.97,.18-.91,1.6-.84,3.02-3.35-1.04-3.69,1.57-4.99,3.02,1.61,28.94,19.66,44.37,43.28,36.19-5.57-6.69-10.29-14.37-12.48-25.12,4.99-.34,6.65-4.71,7.49-10.06,3.08-2.32,8.19-2.17,8.32-8.04-14.08,.51-10.07-14.9,0-16.09,4.86-7.13-.18-14.66,3.33-22.11,8.55,6.41,14.99-2.01,17.48-9.05,9.33-1.8,18.29-4.04,20.81-14.07-.96-2.82-.96-5.23,0-8.05,21.22-4.52,27.24-27.41,39.12-43.22-.86-2.65-.99-6.17-.83-10.06,6.71-9.66,15.55-16.74,29.97-17.08,8.23-5.81,10.26-19.11,15.81-28.15-.95-8.86-.63-17.62,0-27.15,8.22-12.21,26.09-24.84,16.64-46.24-11.26,.87-14.17-8.34-20.8-13.06Zm-111.53-325.69c-2.25,1.63-6.14,1.29-9.16,2.01,1.44-3.05,6.33-3.49,9.16-2.01Zm-108.2,68.35c-2.54-.05-2,3.62-4.99,3.02-3.28-4.41-1.76-16.51,1.66-19.1-.36-1.49-1.07,.4-2.5,0,.85-4.93,8.89-5.67,11.65-5.03-3.71,5.85-8.93,9.58-5.83,21.11Zm16.64,3.02c2.93-5.51,10.59-5.3,17.48-6.03-4.31,3.31-11.6,7.91-17.48,6.03Zm30.8-14.08c-.87,8.83-10.54,1.8-16.64,5.03,2.62-5.22,11.16-3.28,16.64-5.03Zm-29.96-12.06c-.29,1.33-1.47,1.58-1.67,3.02,6.81,1.23,10.47-2.96,14.15,4.02-1.53,5.4-3.94,.26-6.66-1.01,.76,2.79-3.14,7.42-1.67,11.06-1.49-.13-1.76,1.23-3.33,1-.48-4.57-1.68-6.04-4.16-6.03,1.79-6.41-1.48-6.85-5-9.04,2.59-1.23,4.66-3.09,8.32-3.02Zm-29.13-23.12c1.49-.12,1.75,1.24,3.32,1.01,.13,2.5-1.31,3.11-1.66,5.03-1.31-1.36-3.77-3.51-1.66-6.03Zm-5,14.07c3.93-2.46,9.57-7.73,16.65-5.02,1.01,3.13,2.25,5.98,6.66,5.02-.82,4.01,2.49,3.03,1.66,7.04-4.48-1.87-12.3,2.66-17.48-2.01,.3-1.33,1.47-1.58,1.67-3.02-6.4,2.8-10.88,5-16.64,4.01-1.52-4.61,4.7-4.28,7.49-6.03Zm88.22-109.56c4-.82,3.01,4.41,7.5,3.02-2.23,2.81-4.13,.78-6.66,2-.7-1.17-1.09-2.7-.83-5.02Zm-1.66,10.05c2.39-.2,4.54-.12,4.16,3.02h-4.99c.44-.81,.87-1.64,.83-3.02Zm-5.83-27.14c-2.69,1.94-5.18-.64-8.32-1.01,.9-1.55,5.66-.56,8.32,1.01Zm-4.99,16.09c-.26,3.41-5.97,5.46-8.33,3.01,.04-4.31,5-2.69,8.33-3.01Zm-18.31-13.08c-.58,4.05,3.5,2.47,3.32,6.04-3.05-.66-3.19,2.17-5.82,2.01-.29-3.61-1.27-4.84,0-8.05,1.83-.21,6.19-1.38,2.5,0Zm-13.32-20.1c2.01,.38,5.68,2.43,10.82,1-1.68,5.16-8.93-1.74-9.99,3.02-2.92-.27,2.09-3.75-.83-4.02Zm-38.29,44.23c-2.04-.89-4.8-.9-4.99-4.02,1.96,.98,5.28,.32,4.99,4.02Zm-34.95-22.12c1.91-1.3,4.87-4.67,7.49-2.01-.28,3.57-2.29,2.48-.83,6.04-2.86-.44-4.67,.39-6.66,1,.57-1.98,2.22-2.68,4.16-3.01-.21-2.09-3.66-.27-4.16-2.02Zm-138.16,107.56c3.53,5.35,8.67,2.67,10.82,9.05-3.76-2.84-9.85-2.86-10.82-9.05Zm25.8-88.45c-1.23,.43,.33,1.28,0,3.01-1.95,.32-3.12,1.58-5.83,1.01,.21-1.1,1.66-.69,1.67-2.02-2.39-3.14-5.47,1.38-6.66,3.02-2.61,.48-3.25-1.43-4.99-2.01,2.39-1.81,3.6-5.03,8.32-4.02-.19-1.46-2.49-.35-2.5-2.01-5.02-.03-8.57,1.71-14.15,1-4.59-1.36,4.12-1.19,3.33-1,5.28-1.22,15.3-4.24,21.64-4.02,.84,3.02-1.85,1.78-3.33,2.01,2.04,5.41,9.67-1.19,11.65,1.01-1.75,4.78-4.24,4.74-9.15,4.02Zm16.65,27.13c1.41-1.69,4.53-6.52,7.49-3.01-.53,3.38-4.49,2.62-7.49,3.01Zm17.48-5.03c4.13-1.7,5.16-7.16,11.65-6.02-2.69,3.45-7.01,4.94-11.65,6.02Zm11.65,14.08c3.32-2.22,5.95,.29,9.99,0-.67,2.32-9.59,3.88-9.99,0Zm35.78,15.08c-1.85-.43-.65-5.33,0-6.04h3.33c-.54,2.69-2.38,3.83-3.33,6.04Zm2.5-37.19c1.21,.55,4.3-1.18,4.16,1,.45,2.63-4.44,2.97-4.16-1Zm144.82,309.6c-1.97-.57-3.46-3.89-1.67-6.04,3.15-.85,2.95,4.5,1.67,6.04Zm1.66,359.85c.28-2.34,1-4.15,1.66-6.02,.98,.17,.7,1.83,.84,3.02-.14,2.19,2.95,.44,4.16,1-1.49,3.22-3.72,2.54-6.66,2.01Zm5.83-219.13c1.98,.62,3.87,1.35,4.16,4.02-2.72,.26-4-1.19-4.16-4.02Z"/>
      <path class="cls-1" d="M150.93,130.57c-.54-.14-1.07-.27-1.62-.33-2.39,1.02-.68,.95,1.62,.33Z"/>
      <path class="cls-1" d="M151.48,130.68c.02-.08,.03-.19,.04-.28-.2,.06-.39,.12-.59,.17,.18,.05,.37,.06,.55,.11Z"/>
      <path class="cls-1" d="M738.38,107.56c.12-1.18-.15-2.85,.83-3.01,1.02,1.43,2.85,1.9,4.99,2.01,1.27-2.83,5.61-1.93,5.82-6.04-9.8-7.41-24.38-3.03-34.95,0-1.94-5.11-8.45-6.08-10.82-1h5.83c-1.23,13.93,25.11,14.36,25.8,5.02,.89,.94,.26,3.7,2.5,3.01Z"/>
      <path class="cls-1" d="M1582.33,142.74c1.58-5.47-29.89-6.76-28.17-12.06,4.29,2.94,7.63-2.88,10.82-3.02,.85-.04,1.68,3.14,2.49,3.02,3.87-.6,13.24-7.5,17.48,0,11.65-7.33,27.29-17.29,43.28-13.07,.11-5.84-4.93-5.44-4.16-12.06,1.77-1.86,4.43-2.68,7.49-3.01v-23.13c-10.54-2.06-28.67-3.53-42.45-5.02-3.45,.11,1.47,6.31-2.5,7.04-6.04,2.28-5.1-3.9-7.5-6.03-13.43,3.65-27.32,.56-42.44,2-.98-2.15,35.61-5.61,34.01-7.03-10.87-3.13-21.32-.53-34.13-1-13.7-9.72-41.14-10.87-59.1-9.05-2.29-.42-.77,3.75-2.49,4.02-9.48,.06-22.36,4.08-29.97,0-3.94,5.41-12.09,8.32-17.48,2.01-.61-4.43,2.7-4.13,3.33-7.04-5.86-6.66-18.3-5.37-28.29-7.04-1.82,4.81-12.18,7.95-20.81,5.03-1.37-.46-3.25-2.72-5-3.01-14.48-2.5-25.11,4.41-29.13-7.03,.25-3.72,5.21-1.77,6.66-4.02-6.3-10.2-18.13-7.58-29.97-6.03-14.7-20.1-40.4,14.53-54.1-2.01-10.52,7.92-30.96,6.63-46.62,12.06-2.25-.72,.6,4.74-1.66,4.02-5.5,3.74-14.71,3.01-23.3,3.01-2.65,9.9,8.6,3.01,9.15,9.05-9.24,2.08-24.68-3.92-35.79-4.02-1.6,5.1-6.92,5.72-12.48,6.03-.28-2.32,.13-3.86,.82-5.03-11.45-12.77-17.48,5.61-28.3,8.05-1.34,10.67,9.01,7.22,10.83,14.08-11.19,3.79-22.46-8.82-38.29-6.03-2.27,.9,1.48,3.52-.82,5.02-23.95-1.04-45.85,.93-64.92,8.04-2.23-3.9-7.63-8.6-13.32-5.03-2.61,4.34,2.99,7.55,0,12.06-5.37-.46-13.09-1.38-18.31,3.02-2.15,.85,1.61,4.4-.82,6.03-7.91-.85-10.64,.12-12.49,5.03-5.26,.31-6.94-3.69-12.49-3.02-2.52-6.46-1.85-10.97-8.32-13.06,9.22-6.27,29.49,8.5,36.62-4.02-9.76-9.99-29.13-8.39-41.62-15.08-2.18,1.04-5.1,1.2-8.32,1.01-1.83-2.1,.73-3.25-.83-5.03-20.62-5.9-32.35,3-52.43,2.01-2.98,3.44-8.83,3.42-10.82,8.04-4.35-2.53-5.03-.59-9.99,0-.8,3.64,3.59,1.02,4.16,3.01-10.2,8.46-19.04,18.56-29.13,27.14-9.27,1.54-16.4,5.67-21.64,12.07,1.55,11.59,4.88,18.87,13.31,18.09,5.42-.5,8.94-9.07,15.82-6.03,1.88,8.46,8.64,11.01,9.16,21.11,6.26-.48,8.4-5.93,15.81-5.03,.48-3.75,.88-8.38,2.5-13.07,2.96-1.78,7.46-1.71,9.16-5.03-.06-5.96-7.6-2.89-8.33-8.04,.03-12.36,9.43-13.4,16.65-17.08,3.51-1.4,1.71-6.43,4.99-9.05,5-4.01,14.06-2.79,18.31,1-4.34,7.49-12.64,10.2-19.97,14.08,1.53,5.12,2.53,11.35-.83,15.08,13.22,6.26,29.29-7.46,41.62,1.01-7.85,7.61-27.87,.52-34.96,9.04,1.26,1.54,7.83-1.88,9.15,2.01,.4,3.84-.23,6.42-1.66,8.05-4.97,.97-4.68-4.41-9.16-4.03-5.25,1.18-3.94,10.44-4.99,14.07-4.39,.06-5.64,3.92-9.16,5.03-3.12,.08-2.52-4.34-6.66-3.02-12.49,5.85-24.76,4.31-36.62,1.01,1.5-6.82,.28-7.3,1.66-16.08-2.3-.96-7.03,2.58-9.99,4.02-.45,6.23,2.57,8.29,1.66,15.07-3.59,4.04-12.79,1.31-16.65,5.03-2.86,6.25-6.49,11.58-14.14,12.06-3.4,5.27-8.85,12.31-16.64,9.05-1.88,.42,.12,5.51-2.5,5.02-5.06-.13-7.05-1.36-11.65,0,4.18,5.01,11.34,6.41,14.98,12.06,.74,6.57,1.58,14.01-1.66,18.1-12.26,1.72-26.87-5.21-34.95,2.01,3.08,5.43,2.12,18.79-1.67,22.11,2.96,2.68,3.03,6.22,3.33,10.06,8.11-1.01,12.53,1.15,13.32,7.03,1.81,13.57-24.72,18.53-18.31,33.17-2.4,7.49-6.87,12.47-14.15,14.07-7.65,10.87-13.65,23.72-19.97,36.19,.66,6.23,1.8,12.63,5,18.1-3.18,12.31-6.43,18.62-4.17,36.19,4.95,8.76,17.32,8.57,17.49,23.12,9.44,5.01,15.63,13.95,24.96,19.11,6.62-3.03,18.87-6.65,26.64-2.01,9.97-3.7,17.14-10.81,31.63-9.04,3.26,3.08,3.94,9.3,7.49,12.06,8.21-2.38,14.81-2.22,18.32,5.03,.35,9.06-1.46,10.73-2.5,20.1-.41,3.64-2.55,4.16-2.5,5.03,.5,8.8,10.39,12.77,14.15,20.1,4.25,8.3,2.71,15.09,7.49,22.13-3.51,6.65,3.05,13.36,1.67,21.1-.69,3.8-4.36,4.79-5.83,8.05-8.02,17.74-.99,34.91,9.99,52.27-5.44,24.85,17.72,41.69,16.65,61.31,.66,4.54,5.05,4.61,6.65,8.04,14.28-5.92,29.85-1.98,39.95-11.06,9.7-8.73,21.46-22.26,21.64-41.21,3.34-2.66,7.54-4.29,11.65-6.04,2.38-8.1-.04-17.65-1.66-24.12,5.28-14.4,21.16-15.99,27.46-29.15-.91-7.28-.96-15.59-.83-24.13-7.42-5.61-2.76-20.27-8.32-27.14,3.91-15.38,10.2-24.28,18.31-35.19,5.58-7.5,13.72-10,19.15-16.08,1.69-1.89,2.02-5.69,4.16-9.04,1.85-2.89,5.66-4.72,6.66-7.04,.95-2.22-.25-5.79,.83-8.04,1.17-2.46,4.54-4.25,5.82-7.04,.5-1.07,.38-3.63,.83-5.02,1.73-5.28,2.93-7.66,3.34-15.08-12.04,2.03-23.18,9.05-35.8,7.03-1.99-4.68-1.94-7.94-1.66-11.06-6.37-8.3-11.76-13.66-19.14-19.09-.92-9.62-5.23-15.13-9.99-20.1,.21-5.01,.35-4.28,.83-8.04-1.53-5.86-5.12-9.23-8.33-13.07-.43-13.01-11.99-25.25-14.15-36.18,2.88-3.41,4.58,5.59,7.5,8.04,2.79,.36,1.39-4.36,2.49-6.04,6.53,12.23,13.58,23.81,21.65,34.18-1.6,8.16,2.16,16.2,8.32,18.1,.57,7.35,3.62,11.71,7.49,15.08-1.43,6.01,3.1,17.89,4.99,26.14,15.21-5.03,27.41-11.5,40.79-17.1-.09-2.51-1.56-3.11,0-5.03,4.22,1.45,3.6-4.61,10.82-3.02,4.45-4.66,8.98-9.26,14.98-12.06-1.95-12.23,8.99-7.75,8.32-18.09-.66-10.01-15.1-4.31-14.98-19.11-3.84,2.06-6.29,5.8-9.15,9.06-4.51-5.06-5.63-.36-11.65,0,1.04-4.39,.25-4.48-.83-8.04-6.16-5.61-13.56-9.75-16.64-19.1,2.6-4,5.34-7.89,9.14-7.04,3.94,.87,4.35,8.53,7.49,12.07,7.15,8.03,15.95,9.34,24.14,4.02,8.24,16.97,31.69,8.63,46.6,10.05,5.54,11.06,14.11,26.29,28.31,30.15,5.48,25.54,12.41,49.34,23.29,68.36,3.3-2.57,5.01-8.3,10.82-5.02,1.44,4.68-.56,12.4,2.51,17.09,3.6,.32,5.5-1.39,6.65-4.03-1.37-11.51-10.12-15.93-9.98-27.14,.09-6.78,5.29-12.55,1.67-21.11,2.06-4.24,4.89-3.21,9.15-7.04,1.43-1.29,1.08-3.29,2.49-5.02,1.19-1.47,5.32-2.65,7.48-5.03,3.43-3.74,4.13-8.06,5.83-9.05,1.79-1.03,3.46,.32,5-1,1.82-1.57,3.1-5.88,4.99-7.04,1.14-.71,15.58-4.72,18.32-4.02,2.23,.57,7.51,6.95,10.82,12.06,.85,1.33,4.99,9.04,4.99,9.05,1,4.87-1.04,9.31-.84,13.07,6.08,3.28,8.43-4.73,13.32-6.03,6.83,13.29,4.71,30.39,5,47.25,6.86,8.15,13.7,21.59,12.48,36.19-10.77-3.08-13.24-16.18-25.79-17.09,4.17,8.68,10.61,14.64,16.63,21.11,5.9,17.67,14.73,31.8,26.64,42.21,2.61-.19,6.11,.69,7.49-1,3.58-7.77,4.1-18.37-2.5-23.11-1.46-.3-2.57,4.74-3.32,2.01,.21-3.22,1.74-2.12,0-8.05-2.35-2.99-4.23,3.7-5.84-1-1.01-4.91,1.34-5.75,3.34-7.03-1.86-6.48-6.42-9.68-4.99-20.1-3-7.1-8.56-11.12-14.15-15.08-.72-6.83-2.5-12.4-6.66-15.08,1.97-7.33,3.65-15.04,6.66-21.11,4.29,.51,3.92,6.65,9.16,6.02,3.85,5.42,6.43,12.35,12.49,15.08,.1,2.48,.12,4.84-.84,6.03,6.85-2.19,14.09-12.42,20.81-18.09,6.51-20.91-16.52-26.94-16.65-40.21-.07-6.31,8.3-17.28,17.48-14.07,3,6.01-1.15,11.06-2.49,15.08,6.62,7.66,9.82-6.96,8.33-14.07,16.87-4.75,31.67-12,43.26-23.13,1.8-12.91,10.84-17.06,13.33-29.14-.78-6.1-4.4-8.78-3.33-17.09-3.92-2.97-8.72-4.89-11.66-9.04,2.42-6.8,7.73-10.11,14.99-11.06-1.86-4.09-9-4.99-11.66-5.02,1.38-6.06-2-3.6-3.33-10.05,.67-4.56,6.18-3.27,9.15-5.03,2.91,3.14-2.55,5.31,0,8.04,6.02-2.14,11.72-7.16,18.33-3.01,.71,4-1.25,7.42,0,9.05,6.57,1.32,8.44,13.13,4.16,19.09,5.06,4.68,11.7-3.16,15.8-6.02-.22-10.45-5.1-15.28-9.16-21.12,7.65-6.51,11.6-17.5,20.8-22.11,3.41-.43,3.37,3.31,7.51,2.01,14.43-8.36,23.58-23.1,33.29-37.19-.28-7.71-.75-15.64,6.65-14.08,3.18,3.85,1.04,14.16,1.66,21.12,3.06-2.33,3.28-8.11,8.33-8.05-1.77-6.92-4.95-12.12-4.17-22.11-6.31,2.73-12.73,.14-16.65-3.02-8.9,3.96-13.63-.4-19.97-5.02,14.75-11.07,27.15-27.3,49.94-27.15,10.06,.07,21.28-2.98,29.96,3.02,2.91-.5,5.42-1.5,9.15-1.01,.82-2.66,2.1-4.9,3.7-6.82,.08-1.81,.47-3.82,1.4-6.18-.65-.08-.73-.11,.02-.07-.01,.03-.01,.05-.02,.07,.93,.12,3.05,.34,5.7,.63,1.81-.92,3.75-1.65,5.75-2.21-5.69-.67-10.17-1.46-10.6-2.52,1.41,.37,1.56-.79,1.67-2.01h4.99c-.97,.74,3.77,2.03,9.8,3.36,2.25-.28,4.52-.39,6.72-.35,.41,.65,.47,1.26,.39,1.85,4.75,.96,9.3,1.84,11.88,2.43-2.46-.53-7.05-1-12.12-1.48-.39,1.18-.94,2.31-.03,3.5,.99,.27,1.34,.53,.71,.73-.32-.25-.53-.49-.71-.73-3.04-.84-12.19-1.89-18.46-2.58-2.73,1.38-5.15,3.2-7.1,5.54-.45,10.62,11.18,13.25,3.79,24.91,.12,10.9,3.44,17.96,5,27.14,7.45-4.08,12.06-11.57,16.64-19.1h6.66c.45-2.84-.89-11.08,5.83-9.05-.42-6.76-.32-8.16-5-10.05Zm-706.62-4.02c.96-2.86,3.39-3.96,6.66-4.02,.98,4.59-4.92,6.06-6.66,4.02Zm119.85,0c2.12,.11,4.28,.19,4.16,3.01-2.2-.02-5.23,.94-4.16-3.01Zm-1.67,76.39c-4-.19-7.92-.48-10.82-2.01,.95-6.81,15.53-8.74,10.82,2.01Zm-11.65-94.49c1.54-.15,.51-3.4,1.66-4.01,1.86,2.11,3.06,5.02,4.17,8.04-3.15,1.41-9.25-1.29-9.16-7.04,2.08-.17,2.6,1.55,3.33,3.01Zm-10.82,6.03c-.74,6.18-5,1.94-8.32,5.03-1.28-2.81-2.82-5.3-4.99-7.04,3.07-6.36,9.6,.21,13.3,2.01Zm-27.45,10.05h3.32c.36,2.1-.56,2.66-.83,4.02-1.21-.88-3.22-.8-2.49-4.02Zm9.98,104.54c-.07,2.78-9.21,3.58-9.16,0,2.2-.97,7.13-1.95,9.16,0Zm0,255.32c3.29,9.9,4.49,17.15,9.15,26.13-5.59-1.51-9.83-16.82-9.15-26.13Zm27.46,58.31c-6.89-3.63-.82-16.85-4.99-23.12,.13-1.19,1.51-.84,2.49-1,2.72,9.13,1.04,16.8,2.49,24.12Zm-4.15-79.41c2.35,7.32-6.66,8.95-2.51,12.06-2.96,2.15-7.17,.49-9.15,0,.75-3.79,.72-8.51,1.66-12.06,3.33-.73,7.69-3.76,10,0Zm8.32-210.1v12.07c-3.77,4.84-4.02,13.91-8.32,18.09-9.23,.3-16.64-4.72-22.47,2.01-9.73-1.98-18.14-5.57-28.3-7.03-3.37-8.44-21.23-3.65-15.81,8.04-6.6,5.42-12.51-5.03-20.81-4.02-.7-1.18-1.1-2.69-.83-5.02-5.44-4.82-19.04,.2-20.81-9.06-2.01-.4-1.8,1.84-4.16,1.02,.41-4.08,3.15-6.48,5.83-5.03-1.79-3.06-1.87-5.91-4.16-10.05,1.82,.18,2.65-.83,2.49-3.02-2.45-.5-3.52,1.04-5.82-3.01-16.41,7.36-40.59-1.23-54.93,13.06-7.43-2.33-13.16,3.07-17.48-4.02,8.01-7.74,21.72-3.71,26.63-16.07-.73-1.79-2.32-2.56-1.67-6.04,3.34-7.03,11.44-8.31,16.65-13.07-1.16-.62-.12-3.87-1.66-4.02,2.37-6.27,9.85-3.08,14.97-2.01,6.08-2.17,11.87-10.35,19.15-5.03,3.62,16.74,23.86,13.41,28.3,29.15-2.87,7.23-12.55,3.25-18.31,5.03,2.31,4.9,9.15,4.35,12.48,8.03,2.5-1.71,.93-3.65,.83-7.03,5.5,.28,6.2-5.25,9.99-7.04,.65-4.14-3.98-1.88-3.33-6.03,1.6-2.93,6.87-1.84,7.49,2.01,4.51-4.84-4.68-8.56-9.16-9.04-.23-1.62,.78-1.73,.83-3.02-9.65,1.67-11.13-10.91-19.14-14.07,.64-2.57,.83-5.69,2.5-7.05h1.66c2.75,2.58,2.48,4.91,7.49,3.03-.86,12.29,17.7,9.54,21.64,17.09,1.17,2.23-.84,4.66,0,7.03,2.11,5.94,4.84,10.11,9.99,14.07-3.37,3.07,1.39,4.77,1.66,9.05,2.71-1.5,2.95,.86,5.83,.99,1.77-.81-3.44-6.82,1.67-4.01,0-4.05-2.68-4.81-5.83-5.03,2.32-2.41,6.92,.98,8.32,3.01,1.31-.42,.72-3.16,3.33-2-3.62-5.77-8.49-5.06-9.16-13.07,5.25,1.56,10.65-7.83,17.49-1.01-2.45,1.93,.21,6.19-2.51,6.03,.16,.82,.84,1,.83,2.01,4.92,1.37-.25-3.89,3.33-3.01v6.03h-4.16c1.13,2.85,3.54,1.08,6.66,3.02-2.23,2.62,1.02,3.03,.84,6.03,8.97,7.08,17.45-2.69,24.13,5.03,7.73-.88,10.12-4.49,17.49-4.02-.03,.96-1.02,.78-1.66,.99Zm27.46-28.14c-16.24,11.13-33.99-12.29-49.11,2.01-6.1,.68-10.14-1.15-14.98-2.01,.72-3.2-.72-3.81-1.66-5.02-.39-5.84,5.25-4.38,4.17-11.06,5.64-1.74,5.9-11.11,13.32-13.07,2.17,2.07,4.42,4.04,9.15,3.03-.57,1.97-2.22,2.68-4.16,3,2.33,1.57,5.13,2.54,5.83,6.05,10.44-6.63,18.13-2.15,26.64,5.02,4.97,4.21,11.7,2.77,10.82,12.06Zm35.78,22.11c-1.25-5.57,.25-14.61,5.82-15.07-5.66-4.88-10.56-10.69-14.14-18.1,3.73-2.33-.16-6.08,0-10.05,3.68-1.93,7.19-4.04,9.99-7.03,.62,3.09-2.87,1.22-1.67,5.01,6.57,3.81,7.12,14.86,15.82,16.1-.43,10.33,2.58,19.85,4.98,31.16-6.86,7.89-13.57,.21-20.8-2.02Zm134.83-178.92c.54,2.44,1.69,5.17-1.67,5.02,.73-3.22-1.28-3.14-2.5-4.02-.13-2.18,2.96-.46,4.16-1Zm-23.31,11.05c.29-2.67,2.19-3.39,4.17-4.02-2.47-3.4,1.8-6.03-4.17-7.03-.18-3.58,1.19-5.26,4.17-5.03-.71,3.21,1.31,3.11,1.66,5.03,3.89-1.39,8.48-2.44,12.48-1.01-2.7,2.44-9.8-.44-11.66,3.03,.94,1.55,2.71,2.09,2.5,5.02-3.45,.56-5.91,6.43-9.16,4.02Zm18.31,140.73c1.21-1.55,3.25-2.11,5.83-2.01-.22,4.16-3.34,2.94-5.83,2.01Zm28.3-163.85c.51-2.74,2.29-3.94,5.01-4.02-1.88,1.1-1.55,4.84-5.01,4.02Zm94.06,395.05c-1.71,2.32-5.7-1.13-5.84-4.03,2.43,.75,4.13,2.39,5.84,4.03Zm-10.84-278.45c-.69-2.84,1.18-2.61,.83-5.02,3.25-.65,1.33,5.93-.83,5.02Zm39.95-14.07c-8.33-.25-13.7,13.48-21.64,7.03,14.65-.74,18.74-14.22,27.47-22.11,0,7.37-3.87,10.07-5.83,15.08Zm258.85-46.25c-.14-.26-.8-.51-1.86-.74,1.8,.41,2.64,.68,1.86,.74Z"/>
      <path class="cls-1" d="M1575.23,121.47c-2.4-.49-4.85-.99-7.11-1.49-1.98,.25-3.95,.64-5.86,1.17,3.97,.47,8.5,.88,12.73,1.28,.1-.31,.19-.63,.24-.95Z"/>
      <path class="cls-1" d="M369.67,19.1c6.79,12.32,22.41,7.48,30.79,5.02,1.08,5.74,11.66,0,11.65,7.04-.84,0-.99,.81-1.67,1-1.45-2.6-5.53-2.03-9.16-2,2.58,4.9-2.84,4.04-6.66,4.02,1.28,3.29,3.53,2.81,5.83,3.02,12.19,1.05,23.32-1.36,39.95-3.02,1.25-2.18,.93-6.25,3.33-7.04,5.23,3.77,12.16-.1,18.31-3.02,1.1-2.51-3.29-3.15-.83-4.01h5.82c-11.99-6.15-29.81,4.71-43.28-5.03,3.81-2.74,4.57-6.24,7.49-8.04-1.59,4.18,7.16,6.57,8.32,5.02,0,1.32-1.46,.92-1.66,2.01,3.09,.72,3.57-1.71,6.66-1.01-.68-6.68,4.22-.74,4.99-6.03-4.77,1.4-5.53-2.04-7.49-4.02-9.01,.11-25.94,3.16-39.11,3.01-.49,2.1-1.75,3.25-2.5,5.03,3.09,5.43,9.43-3.03,11.65,2.01-3.66,1.28-4.22,6.3-8.33,7.04-3.53-5.87-12.74-3.65-16.65,0-12.38,.7-13.51-3.14-24.13-4.03-1.06,5.67,4.42,4.05,6.66,3.02Zm63.25,4.02c5.29,.56-4.95,6.87,0,7.04-5.86,1.81,.05-5.36,0-7.04Zm-16.64-9.05c1.97-.59,3.87-1.53,4.16,2.01-1.57-.44-5.01,1.38-4.16-2.01Z"/>
      <path class="cls-1" d="M1266.05,17.09c3.57,2.4,10.09,6.55,14.15,5.03-.68-1.36-4.54-4.51-4.99-5.03,.32,.37-15.04-4.75-11.65,3.02,1.98-1.46,2.04-1.53,2.5-3.02Z"/>
      <path class="cls-1" d="M493.68,31.16c-5.02-.53-12.09-3.94-12.49,3.02,3.74-.92,9.21,9.29,12.49,1-.98-.16-2.37,.18-2.5-1,4.6,1.36,6.59,.14,11.65,0,1.06-6.95-5.92-2.68-9.16-3.02Z"/>
      <path class="cls-1" d="M712.57,67.35c-2.7-5.17-8.33-2-9.98-7.04,1.78-1.85,4.43,1.34,7.49,1.01,1.63-1.89,.25-3.68,0-6.03,5.52-.38,8.36-3.97,11.65-7.04-.05-5.62-.21-6.83-2.5-13.07,1.06-1.4,3.93-.62,4.98-2.01,.54-3.76,1.32-5.76-1.66-7.04-.77,3.77-6.68,1.31-9.98,2.01-1.73,1.6,.5,7.99-3.33,7.04-.73,3.23,2.75,1.37,2.5,4.02-3.59,.98-2.28,6.31-1.66,10.05-10.39,3.25-20.27,.94-28.3,7.03,2.06,1.54,4.95,2.07,5.82,5.03-3.81,2.3-8.21-.05-9.99,3.01,1.38,4.11,3.34,4.76,.84,9.05,6.17,1.91,17.5,1.84,17.47-7.03,7.22-.41,11.65,9.88,16.65,1Z"/>
      <path class="cls-1" d="M394.63,46.24c-.05-2.94-1.9-3.73-3.33-5.02,.32,5.07-5.58,2.64-6.66,6.03,5.06,.35,6.5,1.56,9.99-1.01Z"/>
      <path class="cls-1" d="M234,67.35c10.25-.68,13.92-9.32,24.13-10.05-1.12,2.67-4.38,2.74-4.16,7.04,2.65,1.49,7.77,0,9.99,2.01,.41,3.18-4.13,.37-3.33,4.01,7.36,1.17,18.67-2.43,23.31,2.01-7.16,1.75-14.07-.39-22.47,1.01,2.24,7.68,16.78,.52,18.31,9.05,10.43,1.77,21.13-4.89,31.63-5.04,8.74-.11,22.55,9.73,25.8-3.01-5.52-.71-8.73-4.19-14.98-4.03-1.53-5.33-7.67-9.53-3.33-16.08-5.72-5.08-8.37,3.69-14.15,1.01-2.82,3.9,3.21,6.21,.83,9.04-5.43-.47-5.11-7.9-11.66-7.04-3.6,6.81-12.53-3.6-18.31,2.01,.06-1.75-.19-3.13-.83-4.02-2.89-.81-3.2,1.49-5.82,.99-8.7-9.71-25.35-4.68-40.79-7.03,2.43,6.19-4.72,7.06-5,13.07,4.38,.74,7.75,2.7,10.82,5.03Z"/>
      <path class="cls-1" d="M1463.31,264.38c-.88,3.64-3.15,5.56-4.98,8.03-7.62-2.42-16.95,.7-19.99,7.03,2.58,.35,3.98-2.32,5.83,0,.69,2.85-1.18,2.61-.84,5.03,1.85,.99,5.49-3,9.14-3.01,.19-3.01-3.06-3.42-.82-6.04,4.58-1.16,4.97,2.71,5.83,6.04,5.1-5.15,14.4-9.76,22.47-8.05,2.74-5.4,.06-11.16,2.5-18.09,1.64-4.65,5.56-3.84,4.99-9.04-.19-1.75-2.44-3.05-2.5-5.03h-5c-.98,13.21-5.11,22.66-16.64,23.13Z"/>
    </g>
  </g>
</svg>